REM DIRINDEX 1\2,1\3,1\4,1\5
REM DIRNAME "folder01","folder02","folder03","folder04","folder05"
TITLE ""
FILE "P1Q_t_0969-0978.mp3" MP3
  TRACK 01 AUDIO
    TITLE "0:"
    INDEX 01 00:00:00
  TRACK 02 AUDIO
    TITLE "3:cjc173_3859"
    INDEX 01 00:00:20
  TRACK 03 AUDIO
    TITLE "0:"
    INDEX 01 00:01:65
  TRACK 04 AUDIO
    TITLE "4:cjc173_3860"
    INDEX 01 00:02:13
  TRACK 05 AUDIO
    TITLE "0:"
    INDEX 01 00:03:67
  TRACK 06 AUDIO
    TITLE "5:cjc173_3861"
    INDEX 01 00:04:14
  TRACK 07 AUDIO
    TITLE "0:"
    INDEX 01 00:08:73
  TRACK 08 AUDIO
    TITLE "3:cjc173_3862"
    INDEX 01 00:09:43
  TRACK 09 AUDIO
    TITLE "0:"
    INDEX 01 00:10:52
  TRACK 10 AUDIO
    TITLE "4:cjc173_3863"
    INDEX 01 00:10:71
  TRACK 11 AUDIO
    TITLE "0:"
    INDEX 01 00:13:31
  TRACK 12 AUDIO
    TITLE "5:cjc173_3864"
    INDEX 01 00:13:50
  TRACK 13 AUDIO
    TITLE "0:"
    INDEX 01 00:18:36
  TRACK 14 AUDIO
    TITLE "3:cjc173_3865"
    INDEX 01 00:19:06
  TRACK 15 AUDIO
    TITLE "0:"
    INDEX 01 00:20:37
  TRACK 16 AUDIO
    TITLE "4:cjc173_3866"
    INDEX 01 00:20:58
  TRACK 17 AUDIO
    TITLE "0:"
    INDEX 01 00:22:75
  TRACK 18 AUDIO
    TITLE "5:cjc173_3867"
    INDEX 01 00:23:19
  TRACK 19 AUDIO
    TITLE "0:"
    INDEX 01 00:27:21
  TRACK 20 AUDIO
    TITLE "3:cjc173_3868"
    INDEX 01 00:27:70
  TRACK 21 AUDIO
    TITLE "0:"
    INDEX 01 00:29:06
  TRACK 22 AUDIO
    TITLE "4:cjc173_3869"
    INDEX 01 00:29:28
  TRACK 23 AUDIO
    TITLE "0:"
    INDEX 01 00:31:72
  TRACK 24 AUDIO
    TITLE "5:cjc173_3870"
    INDEX 01 00:32:16
  TRACK 25 AUDIO
    TITLE "0:"
    INDEX 01 00:37:33
  TRACK 26 AUDIO
    TITLE "3:cjc173_3871"
    INDEX 01 00:38:05
  TRACK 27 AUDIO
    TITLE "0:"
    INDEX 01 00:39:18
  TRACK 28 AUDIO
    TITLE "4:cjc173_3872"
    INDEX 01 00:39:38
  TRACK 29 AUDIO
    TITLE "0:"
    INDEX 01 00:42:19
  TRACK 30 AUDIO
    TITLE "5:cjc173_3873"
    INDEX 01 00:42:38
  TRACK 31 AUDIO
    TITLE "0:"
    INDEX 01 00:46:30
  TRACK 32 AUDIO
    TITLE "3:cjc173_3874"
    INDEX 01 00:47:02
  TRACK 33 AUDIO
    TITLE "0:"
    INDEX 01 00:48:09
  TRACK 34 AUDIO
    TITLE "4:cjc173_3875"
    INDEX 01 00:48:29
  TRACK 35 AUDIO
    TITLE "0:"
    INDEX 01 00:53:24
  TRACK 36 AUDIO
    TITLE "5:cjc173_3876"
    INDEX 01 00:53:44
  TRACK 37 AUDIO
    TITLE "0:"
    INDEX 01 00:57:61
  TRACK 38 AUDIO
    TITLE "3:cjc173_3877"
    INDEX 01 00:58:33
  TRACK 39 AUDIO
    TITLE "0:"
    INDEX 01 00:59:58
  TRACK 40 AUDIO
    TITLE "4:cjc173_3878"
    INDEX 01 01:00:32
  TRACK 41 AUDIO
    TITLE "0:"
    INDEX 01 01:03:17
  TRACK 42 AUDIO
    TITLE "5:cjc173_3879"
    INDEX 01 01:03:36
  TRACK 43 AUDIO
    TITLE "0:"
    INDEX 01 01:08:67
  TRACK 44 AUDIO
    TITLE "3:cjc173_3880"
    INDEX 01 01:09:37
  TRACK 45 AUDIO
    TITLE "0:"
    INDEX 01 01:10:58
  TRACK 46 AUDIO
    TITLE "4:cjc173_3881"
    INDEX 01 01:11:03
  TRACK 47 AUDIO
    TITLE "0:"
    INDEX 01 01:13:31
  TRACK 48 AUDIO
    TITLE "5:cjc173_3882"
    INDEX 01 01:13:50
  TRACK 49 AUDIO
    TITLE "0:"
    INDEX 01 01:17:72
  TRACK 50 AUDIO
    TITLE "3:cjc173_3883"
    INDEX 01 01:18:40
  TRACK 51 AUDIO
    TITLE "0:"
    INDEX 01 01:19:61
  TRACK 52 AUDIO
    TITLE "4:cjc173_3884"
    INDEX 01 01:20:07
  TRACK 53 AUDIO
    TITLE "0:"
    INDEX 01 01:22:73
  TRACK 54 AUDIO
    TITLE "5:cjc173_3885"
    INDEX 01 01:23:19
  TRACK 55 AUDIO
    TITLE "0:"
    INDEX 01 01:27:62
  TRACK 56 AUDIO
    TITLE "3:cjc173_3886"
    INDEX 01 01:28:34
  TRACK 57 AUDIO
    TITLE "0:"
    INDEX 01 01:29:38
  TRACK 58 AUDIO
    TITLE "4:cjc173_3887"
    INDEX 01 01:29:59
  TRACK 59 AUDIO
    TITLE "0:"
    INDEX 01 01:36:30
  TRACK 60 AUDIO
    TITLE "5:cjc173_3888"
    INDEX 01 01:36:49
  TRACK 61 AUDIO
    TITLE "0:"
    INDEX 01 01:41:37
